#!OML:ASF H:\Terrain\Patient Classification 1\Terrain2\Thursday\justin.ASF
:FULLY-SPECIFIED
:DEGREES
2514
root 20.1544 22.8161 7.00541 177.209 -360.869 -531.862
lowerback 5.29574 0.694123 6.27958
upperback 2.15872 0.849248 4.56019
thorax -0.697967 0.247713 1.13775
lowerneck -12.1206 2.48141 -8.41989
upperneck 39.2524 0.190951 2.55073
head 15.9053 -2.48749 2.17373
rclavicle -7.25564e-015 1.27222e-014
rhumerus -33.8615 -11.9264 -76.7318
rradius 26.2762
rwrist -8.27482
rhand -20.0379 11.5574
rfingers 7.12502
rthumb 6.30322 -18.3289
lclavicle -7.25564e-015 1.27222e-014
lhumerus -38.2333 13.4869 77.8092
lradius 25.4021
lwrist 0.199161
lhand -14.6266 19.8269
lfingers 7.12502
lthumb 11.5248 49.49
rfemur 17.3409 -2.43717 33.5302
rtibia 22.8506
rfoot -29.5815 -7.66327
rtoes 1.6777
lfemur -27.6322 3.37441 -13.2458
ltibia 25.3782
lfoot 22.1168 -3.76745
ltoes -9.16384
2515
root 20.1484 22.7554 6.86765 177.201 -360.691 -531.803
lowerback 5.01196 0.777599 6.2655
upperback 2.16758 0.932582 4.58244
thorax -0.52883 0.293161 1.16625
lowerneck -12.0306 2.45856 -8.42053
upperneck 39.133 0.175873 2.54868
head 15.8231 -2.48271 2.17115
rclavicle -3.18055e-015 7.95139e-015
rhumerus -33.8978 -11.9332 -76.5609
rradius 26.2086
rwrist -8.25282
rhand -20.0399 11.2817
rfingers 7.12502
rthumb 6.30134 -18.6046
lclavicle -3.18055e-015 7.95139e-015
lhumerus -38.4954 13.5752 77.5931
lradius 25.4652
lwrist 0.339108
lhand -14.769 19.4972
lfingers 7.12502
lthumb 11.3876 49.1679
rfemur 17.5614 -2.25436 33.6025
rtibia 23.5542
rfoot -30.1998 -7.9309
rtoes 0.604115
lfemur -27.2722 3.24828 -13.1143
ltibia 25.3182
lfoot 22.4461 -3.5415
ltoes -9.45124
2516
root 20.1434 22.6917 6.73723 177.216 -360.717 -531.543
lowerback 4.89716 0.820157 6.46228
upperback 2.07375 0.991196 4.63512
thorax -0.556568 0.319975 1.10941
lowerneck -11.9911 2.40567 -8.51836
upperneck 39.1418 0.0384632 2.74078
head 15.8261 -2.5314 2.24969
rclavicle 3.03147e-015 1.27222e-014
rhumerus -34.0945 -12.05 -76.3571
rradius 26.2114
rwrist -8.25022
rhand -20.1194 11.0985
rfingers 7.12502
rthumb 6.22453 -18.7901
lclavicle 3.03147e-015 1.27222e-014
lhumerus -38.8458 13.4149 77.4459
lradius 25.7794
lwrist 0.405502
lhand -14.4117 19.876
lfingers 7.12502
lthumb 11.7321 49.5274
rfemur 17.7472 -2.17518 33.9515
rtibia 24.186
rfoot -30.6916 -8.15756
rtoes 0.90572
lfemur -27.0444 3.15467 -12.823
ltibia 25.348
lfoot 22.8567 -3.52133
ltoes -9.60233
2517
root 20.1423 22.6272 6.61294 177.291 -360.812 -531.271
lowerback 4.7925 0.839215 6.65498
upperback 1.96803 1.02275 4.66357
thorax -0.602648 0.33394 1.03114
lowerneck -12.1131 2.35395 -8.59455
upperneck 39.2483 -0.0991165 2.95069
head 15.9195 -2.579 2.33347
rclavicle 6.21202e-015 6.36111e-015
rhumerus -34.1889 -12.1163 -76.2631
rradius 26.0955
rwrist -8.25364
rhand -20.3558 11.5429
rfingers 7.12502
rthumb 5.99635 -18.3522
lclavicle 6.21202e-015 6.36111e-015
lhumerus -39.1749 13.2765 77.261
lradius 26.1767
lwrist 0.58962
lhand -14.7515 20.1362
lfingers 7.12502
lthumb 11.4045 49.806
rfemur 17.8194 -2.23061 34.3182
rtibia 24.8522
rfoot -30.961 -8.59502
rtoes -0.22092
lfemur -26.8877 3.05628 -12.5206
ltibia 25.3313
lfoot 23.4227 -3.73815
ltoes -10.0289
2518
root 20.1407 22.5561 6.4772 177.24 -360.717 -531.261
lowerback 4.70089 0.931273 6.56648
upperback 1.93055 1.14327 4.64427
thorax -0.588844 0.397095 1.05489
lowerneck -12.1325 2.30153 -8.57373
upperneck 39.2937 -0.196549 2.96237
head 15.9563 -2.61933 2.31892
rclavicle -4.47266e-015 -2.34566e-014
rhumerus -34.3502 -12.3223 -76.0612
rradius 25.9954
rwrist -8.09946
rhand -20.3748 12.0026
rfingers 7.12502
rthumb 5.978 -17.8931
lclavicle -4.47266e-015 -2.34566e-014
lhumerus -39.5678 13.1041 77.129
lradius 26.4497
lwrist 1.02399
lhand -16.2312 20.055
lfingers 7.12502
lthumb 9.97715 49.7985
rfemur 18.0533 -2.21165 34.348
rtibia 25.6141
rfoot -31.3484 -8.80216
rtoes -1.56725
lfemur -26.4269 3.08908 -12.4873
ltibia 25.2131
lfoot 23.9651 -4.38507
ltoes -12.4117
2519
root 20.1341 22.4825 6.33436 177.338 -360.588 -531.407
lowerback 4.38017 1.00738 6.30889
upperback 1.87737 1.22046 4.63192
thorax -0.469463 0.442821 1.18459
lowerneck -12.079 2.29291 -8.57784
upperneck 39.3042 -0.215912 2.93782
head 15.9507 -2.63655 2.30443
rclavicle -1.18525e-014 -8.82604e-014
rhumerus -34.505 -12.4664 -75.7793
rradius 25.9399
rwrist -7.85011
rhand -20.3579 11.8913
rfingers 7.12502
rthumb 5.99432 -18.004
lclavicle -1.18525e-014 -8.82604e-014
lhumerus -40.0254 13.2111 76.9368
lradius 26.6453
lwrist 1.18306
lhand -16.6301 20.2339
lfingers 7.12502
lthumb 9.59221 49.9955
rfemur 18.1008 -2.11567 34.1834
rtibia 26.4201
rfoot -31.8402 -8.97793
rtoes -2.39036
lfemur -26.0386 3.04048 -12.5751
ltibia 25.0569
lfoot 24.6962 -4.44973
ltoes -13.0473
2520
root 20.1228 22.4157 6.18919 177.538 -360.476 -531.789
lowerback 3.94489 1.04248 5.89435
upperback 1.81076 1.24864 4.4806
thorax -0.303326 0.473272 1.26181
lowerneck -12.0678 2.31522 -8.49508
upperneck 39.2915 -0.217617 2.97676
head 15.9404 -2.61963 2.30622
rclavicle -1.02871e-014 -6.83819e-014
rhumerus -34.4535 -12.4998 -75.6896
rradius 25.6322
rwrist -7.7491
rhand -20.3998 11.8429
rfingers 7.12502
rthumb 5.95387 -18.0535
lclavicle -1.02871e-014 -6.83819e-014
lhumerus -40.3338 12.9379 76.9662
lradius 26.6823
lwrist 2.91372
lhand -17.9385 18.7901
lfingers 7.12502
lthumb 8.3297 48.6059
rfemur 18.1574 -2.11915 33.6716
rtibia 27.1737
rfoot -32.3607 -9.27176
rtoes -4.20988
lfemur -25.694 2.6192 -12.8393
ltibia 24.951
lfoot 25.5495 -3.75686
ltoes -11.6071
2521
root 20.1143 22.3452 6.0461 177.564 -360.322 -531.968
lowerback 3.76057 1.08636 5.63966
upperback 1.75916 1.30418 4.39621
thorax -0.25813 0.508781 1.31593
lowerneck -12.0437 2.35112 -8.43942
upperneck 39.2596 -0.199227 3.05476
head 15.9147 -2.59078 2.33342
rclavicle 1.80646e-014 1.74931e-014
rhumerus -34.41 -12.5872 -75.571
rradius 25.3175
rwrist -7.58214
rhand -20.3899 11.6923
rfingers 7.12502
rthumb 5.96337 -18.2038
lclavicle 1.80646e-014 1.74931e-014
lhumerus -40.7226 11.9325 77.6055
lradius 26.6742
lwrist 7.23713
lhand -22.3522 14.5925
lfingers 7.12502
lthumb 4.06868 44.5334
rfemur 18.4959 -2.18446 33.336
rtibia 27.8903
rfoot -32.887 -9.03414
rtoes -4.85843
lfemur -25.1625 2.13468 -12.8584
ltibia 24.9569
lfoot 26.2957 -3.2215
ltoes -10.674
2522
root 20.1049 22.2723 5.90085 177.601 -360.156 -531.75
lowerback 3.54176 1.13894 5.77435
upperback 1.74246 1.35127 4.47553
thorax -0.149714 0.530546 1.32489
lowerneck -12.112 2.36504 -8.47092
upperneck 39.2616 -0.150159 3.06262
head 15.9284 -2.57151 2.35126
rclavicle -1.56543e-015 -1.15295e-014
rhumerus -34.4148 -12.6596 -75.3567
rradius 25.1933
rwrist -7.26044
rhand -20.4403 11.2316
rfingers 7.12502
rthumb 5.91471 -18.6658
lclavicle -1.56543e-015 -1.15295e-014
lhumerus -41.2916 13.2378 76.4057
lradius 27.2941
lwrist 3.18116
lhand -17.5006 17.999
lfingers 7.12502
lthumb 8.75232 47.7975
rfemur 18.6859 -2.29143 33.4015
rtibia 28.6298
rfoot -33.1647 -8.71789
rtoes -5.08828
lfemur -24.7092 1.93027 -12.4769
ltibia 25.1019
lfoot 26.9783 -2.75323
ltoes -8.93528
2523
root 20.0903 22.1946 5.7453 177.643 -359.991 -531.509
lowerback 3.21967 1.25272 6.08965
upperback 1.78348 1.47065 4.49269
thorax 0.0848696 0.593273 1.17042
lowerneck -12.2639 2.2688 -8.45943
upperneck 39.1981 -0.222919 3.03845
head 15.9405 -2.58459 2.33089
rclavicle -1.63997e-014 -5.04913e-014
rhumerus -34.361 -13.0067 -75.1032
rradius 25.0257
rwrist -6.92642
rhand -20.4031 11.035
rfingers 7.12502
rthumb 5.9506 -18.8614
lclavicle -1.63997e-014 -5.04913e-014
lhumerus -41.6315 13.4275 76.0404
lradius 27.8668
lwrist 2.0065
lhand -15.8124 19.7128
lfingers 7.12502
lthumb 10.3811 49.4365
rfemur 18.9618 -2.52834 33.4102
rtibia 29.4104
rfoot -33.4726 -8.78259
rtoes -7.15273
lfemur -24.2347 1.86554 -12.128
ltibia 25.3575
lfoot 27.4549 -2.23752
ltoes -5.86872
2524
root 20.0766 22.1079 5.59102 177.652 -359.844 -531.49
lowerback 3.02212 1.38282 6.1317
upperback 1.75689 1.63607 4.44361
thorax 0.174553 0.681212 1.09577
lowerneck -12.2635 2.16852 -8.37888
upperneck 39.0724 -0.321029 2.96469
head 15.8855 -2.60424 2.27092
rclavicle -9.11925e-015 -3.1408e-014
rhumerus -34.4433 -13.4068 -74.8231
rradius 24.8444
rwrist -6.74553
rhand -20.4125 11.2999
rfingers 7.12502
rthumb 5.94158 -18.5968
lclavicle -9.11925e-015 -3.1408e-014
lhumerus -41.9861 13.1202 76.0055
lradius 28.3462
lwrist 2.23078
lhand -16.4527 20.3668
lfingers 7.12502
lthumb 9.76346 50.1205
rfemur 19.3417 -2.79278 33.1581
rtibia 30.3047
rfoot -34.0015 -8.82924
rtoes -9.07633
lfemur -23.6484 1.96294 -12.1255
ltibia 25.6054
lfoot 27.7184 -2.21934
ltoes -4.37857
2525
root 20.0636 22.0224 5.43746 177.688 -359.581 -531.668
lowerback 2.82452 1.06885 5.89887
upperback 1.72706 1.92746 4.34586
thorax 0.22489 1.13947 1.12022
lowerneck -12.1622 2.11565 -8.40595
upperneck 38.9986 -0.403679 2.9938
head 15.8299 -2.63409 2.27478
rclavicle 2.36057e-014 4.17448e-014
rhumerus -34.6138 -13.7154 -74.5605
rradius 24.5336
rwrist -6.5034
rhand -20.5551 12.0306
rfingers 7.12502
rthumb 5.80391 -17.8699
lclavicle 2.36057e-014 4.17448e-014
lhumerus -42.3254 13.1567 75.7414
lradius 28.3995
lwrist 2.21483
lhand -17.0439 20.0294
lfingers 7.12502
lthumb 9.19293 49.809
rfemur 19.5602 -2.95656 32.6704
rtibia 31.3414
rfoot -34.3543 -8.91953
rtoes -10.7563
lfemur -22.9704 2.18785 -12.3546
ltibia 25.751
lfoot 27.6881 -2.64018
ltoes -4.69114
2526
root 20.0472 21.9434 5.27382 177.726 -359.303 -531.929
lowerback 2.55329 1.24548 5.74488
upperback 1.64857 2.1099 4.16694
thorax 0.30261 1.21804 1.02367
lowerneck -11.9886 2.07882 -8.48524
upperneck 38.8907 -0.523247 3.20294
head 15.7402 -2.66239 2.36
rclavicle 2.87368e-014 8.8658e-014
rhumerus -34.8646 -14.1443 -74.3208
rradius 24.1815
rwrist -6.05635
rhand -20.8266 12.6288
rfingers 7.12502
rthumb 5.54176 -17.2787
lclavicle 2.87368e-014 8.8658e-014
lhumerus -42.7549 13.0593 75.4535
lradius 28.4503
lwrist 2.4642
lhand -17.3258 19.6507
lfingers 7.12502
lthumb 8.92093 49.4421
rfemur 19.8166 -3.18303 31.9838
rtibia 32.4789
rfoot -34.6661 -8.75625
rtoes -12.591
lfemur -22.141 2.30471 -12.6397
ltibia 25.785
lfoot 27.2113 -2.94001
ltoes -2.81727
2527
root 20.0304 21.8708 5.10617 177.713 -359.155 -532.006
lowerback 2.33254 1.29994 5.75124
upperback 1.59787 2.15037 4.05963
thorax 0.380018 1.23293 0.914836
lowerneck -11.9107 2.07869 -8.4409
upperneck 38.7464 -0.518844 3.23952
head 15.6468 -2.63559 2.36922
rclavicle -1.43995e-014 2.14687e-014
rhumerus -35.0576 -14.5254 -74.1263
rradius 24.0043
rwrist -5.5777
rhand -20.8938 12.6758
rfingers 7.12502
rthumb 5.47685 -17.2335
lclavicle -1.43995e-014 2.14687e-014
lhumerus -43.2943 13.2058 75.0828
lradius 28.737
lwrist 2.6966
lhand -16.8007 20.363
lfingers 7.12502
lthumb 9.42768 50.1322
rfemur 19.9838 -3.33768 31.5566
rtibia 33.6524
rfoot -34.9608 -8.14287
rtoes -13.6627
lfemur -21.1638 2.39518 -12.7356
ltibia 25.7897
lfoot 26.249 -3.87474
ltoes 2.32286
